<svg width="37" height="42" viewBox="0 0 37 42" fill="none" xmlns="http://www.w3.org/2000/svg">
<path d="M10.1469 20.166C10.1469 13.63 15.4192 8.35769 21.9552 8.31412L23.0445 3.56466C22.6959 3.52109 22.3474 3.52109 21.9988 3.52109C12.8484 3.52109 5.39746 10.9721 5.39746 20.1224C5.39746 24.1747 6.83537 27.8784 9.27546 30.7542L12.5434 27.1812C11.0619 25.3076 10.1469 22.8675 10.1469 20.166Z" fill="url(#paint0_linear_30_3512)"/>
<path d="M29.9726 28.9242C27.8811 30.8414 25.0924 32.0178 21.9987 32.0178C18.6872 32.0178 15.6806 30.6235 13.502 28.4449L10.2776 31.9743C13.2841 34.9808 17.4236 36.8109 21.9987 36.8109C26.4432 36.8109 30.4955 35.0679 33.4584 32.1921L29.9726 28.9242Z" fill="url(#paint1_linear_30_3512)"/>
<path d="M24.5697 3.78253L23.5239 8.44484C26.0076 8.74985 28.2298 9.83918 29.9727 11.4514L33.8072 8.53199C31.3671 6.04833 28.1427 4.34898 24.5697 3.78253Z" fill="url(#paint2_linear_30_3512)"/>
<path d="M17.685 11.3207C14.3735 12.9329 12.1077 16.3316 12.1077 20.2531C12.1077 24.1747 14.3735 27.5734 17.685 29.1856" stroke="url(#paint3_linear_30_3512)" stroke-miterlimit="10"/>
<path d="M17.6851 13.5429C18.9124 13.5429 19.9073 12.548 19.9073 11.3207C19.9073 10.0934 18.9124 9.09845 17.6851 9.09845C16.4578 9.09845 15.4629 10.0934 15.4629 11.3207C15.4629 12.548 16.4578 13.5429 17.6851 13.5429Z" fill="url(#paint4_radial_30_3512)"/>
<path d="M16.6392 11.3207C16.6392 11.8871 17.1185 12.3664 17.6849 12.3664C18.2514 12.3664 18.7307 11.8871 18.7307 11.3207C18.7307 10.7542 18.2514 10.2749 17.6849 10.2749C17.0749 10.2749 16.6392 10.7542 16.6392 11.3207Z" fill="url(#paint5_linear_30_3512)"/>
<path d="M17.6851 30.8414C18.9124 30.8414 19.9073 29.8464 19.9073 28.6191C19.9073 27.3918 18.9124 26.3969 17.6851 26.3969C16.4578 26.3969 15.4629 27.3918 15.4629 28.6191C15.4629 29.8464 16.4578 30.8414 17.6851 30.8414Z" fill="url(#paint6_radial_30_3512)"/>
<path d="M16.6392 28.6191C16.6392 29.1856 17.1185 29.6649 17.6849 29.6649C18.2514 29.6649 18.7307 29.1856 18.7307 28.6191C18.7307 28.0527 18.2514 27.5734 17.6849 27.5734C17.0749 27.5734 16.6392 28.0527 16.6392 28.6191Z" fill="url(#paint7_linear_30_3512)"/>
<path d="M33.9378 34.7194C30.6698 37.4209 26.5304 38.9895 21.9988 38.9895" stroke="url(#paint8_linear_30_3512)" stroke-miterlimit="10"/>
<path d="M8.40405 7.26838C11.8027 3.65182 16.6393 1.4296 21.9988 1.4296C26.5304 1.4296 30.7134 3.0418 33.9378 5.69975" stroke="url(#paint9_linear_30_3512)" stroke-miterlimit="10"/>
<path d="M3.21875 20.2096C3.21875 16.3751 4.39522 12.8022 6.356 9.79562" stroke="url(#paint10_linear_30_3512)" stroke-miterlimit="10"/>
<path d="M18.6871 38.7281C10.8439 37.3337 4.70014 31.1028 3.43652 23.2161" stroke="url(#paint11_linear_30_3512)" stroke-miterlimit="10"/>
<path d="M33.9378 37.0287C35.1651 37.0287 36.16 36.0338 36.16 34.8065C36.16 33.5792 35.1651 32.5843 33.9378 32.5843C32.7105 32.5843 31.7156 33.5792 31.7156 34.8065C31.7156 36.0338 32.7105 37.0287 33.9378 37.0287Z" fill="url(#paint12_radial_30_3512)"/>
<path d="M33.9378 35.8522C34.5154 35.8522 34.9836 35.384 34.9836 34.8065C34.9836 34.2289 34.5154 33.7607 33.9378 33.7607C33.3603 33.7607 32.8921 34.2289 32.8921 34.8065C32.8921 35.384 33.3603 35.8522 33.9378 35.8522Z" fill="url(#paint13_linear_30_3512)"/>
<path d="M22.5215 41.4296C23.7488 41.4296 24.7438 40.4347 24.7438 39.2074C24.7438 37.9801 23.7488 36.9852 22.5215 36.9852C21.2942 36.9852 20.2993 37.9801 20.2993 39.2074C20.2993 40.4347 21.2942 41.4296 22.5215 41.4296Z" fill="url(#paint14_radial_30_3512)"/>
<path d="M22.5216 40.2531C23.0991 40.2531 23.5673 39.7849 23.5673 39.2074C23.5673 38.6298 23.0991 38.1616 22.5216 38.1616C21.944 38.1616 21.4758 38.6298 21.4758 39.2074C21.4758 39.7849 21.944 40.2531 22.5216 40.2531Z" fill="url(#paint15_linear_30_3512)"/>
<path d="M18.3821 40.9503C19.6094 40.9503 20.6044 39.9554 20.6044 38.7281C20.6044 37.5008 19.6094 36.5059 18.3821 36.5059C17.1548 36.5059 16.1599 37.5008 16.1599 38.7281C16.1599 39.9554 17.1548 40.9503 18.3821 40.9503Z" fill="url(#paint16_radial_30_3512)"/>
<path d="M18.3822 39.7738C18.9597 39.7738 19.4279 39.3056 19.4279 38.7281C19.4279 38.1505 18.9597 37.6823 18.3822 37.6823C17.8046 37.6823 17.3364 38.1505 17.3364 38.7281C17.3364 39.3056 17.8046 39.7738 18.3822 39.7738Z" fill="url(#paint17_linear_30_3512)"/>
<path d="M3.61089 26.0483C4.83819 26.0483 5.83312 25.0534 5.83312 23.8261C5.83312 22.5988 4.83819 21.6039 3.61089 21.6039C2.38359 21.6039 1.38867 22.5988 1.38867 23.8261C1.38867 25.0534 2.38359 26.0483 3.61089 26.0483Z" fill="url(#paint18_radial_30_3512)"/>
<path d="M3.61094 24.8719C4.18849 24.8719 4.65669 24.4037 4.65669 23.8261C4.65669 23.2486 4.18849 22.7804 3.61094 22.7804C3.03338 22.7804 2.56519 23.2486 2.56519 23.8261C2.56519 24.4037 3.03338 24.8719 3.61094 24.8719Z" fill="url(#paint19_linear_30_3512)"/>
<path d="M3.2188 21.9089C4.4461 21.9089 5.44103 20.914 5.44103 19.6867C5.44103 18.4594 4.4461 17.4644 3.2188 17.4644C1.9915 17.4644 0.996582 18.4594 0.996582 19.6867C0.996582 20.914 1.9915 21.9089 3.2188 21.9089Z" fill="url(#paint20_radial_30_3512)"/>
<path d="M3.21885 20.7324C3.7964 20.7324 4.2646 20.2642 4.2646 19.6867C4.2646 19.1091 3.7964 18.6409 3.21885 18.6409C2.64129 18.6409 2.1731 19.1091 2.1731 19.6867C2.1731 20.2642 2.64129 20.7324 3.21885 20.7324Z" fill="url(#paint21_linear_30_3512)"/>
<path d="M6.18169 12.4971C7.40899 12.4971 8.40392 11.5022 8.40392 10.2749C8.40392 9.04763 7.40899 8.0527 6.18169 8.0527C4.9544 8.0527 3.95947 9.04763 3.95947 10.2749C3.95947 11.5022 4.9544 12.4971 6.18169 12.4971Z" fill="url(#paint22_radial_30_3512)"/>
<path d="M6.18174 11.3207C6.75929 11.3207 7.22749 10.8525 7.22749 10.2749C7.22749 9.69736 6.75929 9.22916 6.18174 9.22916C5.60419 9.22916 5.13599 9.69736 5.13599 10.2749C5.13599 10.8525 5.60419 11.3207 6.18174 11.3207Z" fill="url(#paint23_linear_30_3512)"/>
<path d="M6.53027 7.00695C6.53027 8.22699 7.53245 9.22917 8.7525 9.22917C9.97254 9.22917 10.9747 8.22699 10.9747 7.00695C10.9747 5.78691 9.97254 4.78473 8.7525 4.78473C7.48888 4.8283 6.53027 5.78691 6.53027 7.00695Z" fill="url(#paint24_radial_30_3512)"/>
<path d="M7.66333 7.00693C7.66333 7.57338 8.14263 8.05269 8.70908 8.05269C9.27553 8.05269 9.75483 7.57338 9.75483 7.00693C9.75483 6.44048 9.27553 5.96118 8.70908 5.96118C8.14263 6.00475 7.66333 6.44048 7.66333 7.00693Z" fill="url(#paint25_linear_30_3512)"/>
<path d="M34.1121 8.00911C35.3394 8.00911 36.3343 7.01419 36.3343 5.78689C36.3343 4.55959 35.3394 3.56467 34.1121 3.56467C32.8848 3.56467 31.8899 4.55959 31.8899 5.78689C31.8899 7.01419 32.8848 8.00911 34.1121 8.00911Z" fill="url(#paint26_radial_30_3512)"/>
<path d="M34.1122 6.83265C34.6897 6.83265 35.1579 6.36445 35.1579 5.7869C35.1579 5.20935 34.6897 4.74115 34.1122 4.74115C33.5346 4.74115 33.0664 5.20935 33.0664 5.7869C33.0664 6.36445 33.5346 6.83265 34.1122 6.83265Z" fill="url(#paint27_linear_30_3512)"/>
<defs>
<linearGradient id="paint0_linear_30_3512" x1="14.2238" y1="14.4988" x2="14.2238" y2="41.0894" gradientUnits="userSpaceOnUse">
<stop offset="0.0873016" stop-color="#EB5757"/>
<stop offset="0.9709" stop-color="#3C53D7"/>
</linearGradient>
<linearGradient id="paint1_linear_30_3512" x1="21.8717" y1="31.8172" x2="21.8717" y2="39.9858" gradientUnits="userSpaceOnUse">
<stop offset="0.0873016" stop-color="#EB5757"/>
<stop offset="0.9709" stop-color="#3C53D7"/>
</linearGradient>
<linearGradient id="paint2_linear_30_3512" x1="28.6672" y1="6.87387" x2="28.6672" y2="14.3618" gradientUnits="userSpaceOnUse">
<stop offset="0.0873016" stop-color="#EB5757"/>
<stop offset="0.9709" stop-color="#3C53D7"/>
</linearGradient>
<linearGradient id="paint3_linear_30_3512" x1="14.8972" y1="18.5221" x2="14.8972" y2="35.9655" gradientUnits="userSpaceOnUse">
<stop offset="0.0873016" stop-color="#EB5757"/>
<stop offset="0.9709" stop-color="#3C53D7"/>
</linearGradient>
<radialGradient id="paint4_radial_30_3512" cx="0" cy="0" r="1" gradientUnits="userSpaceOnUse" gradientTransform="translate(17.7049 11.3198) scale(2.01651)">
<stop stop-color="#7F00FE"/>
<stop offset="1" stop-color="#450528" stop-opacity="0"/>
</radialGradient>
<linearGradient id="paint5_linear_30_3512" x1="17.6852" y1="11.118" x2="17.6852" y2="13.1602" gradientUnits="userSpaceOnUse">
<stop offset="0.0873016" stop-color="#EB5757"/>
<stop offset="0.9709" stop-color="#3C53D7"/>
</linearGradient>
<radialGradient id="paint6_radial_30_3512" cx="0" cy="0" r="1" gradientUnits="userSpaceOnUse" gradientTransform="translate(17.7049 28.6183) scale(2.01651)">
<stop stop-color="#7F00FE"/>
<stop offset="1" stop-color="#450528" stop-opacity="0"/>
</radialGradient>
<linearGradient id="paint7_linear_30_3512" x1="17.6852" y1="28.4165" x2="17.6852" y2="30.4586" gradientUnits="userSpaceOnUse">
<stop offset="0.0873016" stop-color="#EB5757"/>
<stop offset="0.9709" stop-color="#3C53D7"/>
</linearGradient>
<linearGradient id="paint8_linear_30_3512" x1="27.9702" y1="36.4407" x2="27.9702" y2="40.6101" gradientUnits="userSpaceOnUse">
<stop offset="0.0873016" stop-color="#EB5757"/>
<stop offset="0.9709" stop-color="#3C53D7"/>
</linearGradient>
<linearGradient id="paint9_linear_30_3512" x1="21.175" y1="3.78323" x2="21.175" y2="9.48425" gradientUnits="userSpaceOnUse">
<stop offset="0.0873016" stop-color="#EB5757"/>
<stop offset="0.9709" stop-color="#3C53D7"/>
</linearGradient>
<linearGradient id="paint10_linear_30_3512" x1="4.78788" y1="13.9935" x2="4.78788" y2="24.1618" gradientUnits="userSpaceOnUse">
<stop offset="0.0873016" stop-color="#EB5757"/>
<stop offset="0.9709" stop-color="#3C53D7"/>
</linearGradient>
<linearGradient id="paint11_linear_30_3512" x1="11.0642" y1="29.469" x2="11.0642" y2="44.615" gradientUnits="userSpaceOnUse">
<stop offset="0.0873016" stop-color="#EB5757"/>
<stop offset="0.9709" stop-color="#3C53D7"/>
</linearGradient>
<radialGradient id="paint12_radial_30_3512" cx="0" cy="0" r="1" gradientUnits="userSpaceOnUse" gradientTransform="translate(33.9576 34.8057) scale(2.01651)">
<stop stop-color="#7F00FE"/>
<stop offset="1" stop-color="#450528" stop-opacity="0"/>
</radialGradient>
<linearGradient id="paint13_linear_30_3512" x1="33.9382" y1="34.6038" x2="33.9382" y2="36.646" gradientUnits="userSpaceOnUse">
<stop offset="0.0873016" stop-color="#EB5757"/>
<stop offset="0.9709" stop-color="#3C53D7"/>
</linearGradient>
<radialGradient id="paint14_radial_30_3512" cx="0" cy="0" r="1" gradientUnits="userSpaceOnUse" gradientTransform="translate(22.5414 39.2066) scale(2.01651)">
<stop stop-color="#7F00FE"/>
<stop offset="1" stop-color="#450528" stop-opacity="0"/>
</radialGradient>
<linearGradient id="paint15_linear_30_3512" x1="22.5219" y1="39.0047" x2="22.5219" y2="41.0469" gradientUnits="userSpaceOnUse">
<stop offset="0.0873016" stop-color="#EB5757"/>
<stop offset="0.9709" stop-color="#3C53D7"/>
</linearGradient>
<radialGradient id="paint16_radial_30_3512" cx="0" cy="0" r="1" gradientUnits="userSpaceOnUse" gradientTransform="translate(18.402 38.7273) scale(2.01651)">
<stop stop-color="#7F00FE"/>
<stop offset="1" stop-color="#450528" stop-opacity="0"/>
</radialGradient>
<linearGradient id="paint17_linear_30_3512" x1="18.3825" y1="38.5254" x2="18.3825" y2="40.5676" gradientUnits="userSpaceOnUse">
<stop offset="0.0873016" stop-color="#EB5757"/>
<stop offset="0.9709" stop-color="#3C53D7"/>
</linearGradient>
<radialGradient id="paint18_radial_30_3512" cx="0" cy="0" r="1" gradientUnits="userSpaceOnUse" gradientTransform="translate(3.63072 23.8253) scale(2.01651)">
<stop stop-color="#7F00FE"/>
<stop offset="1" stop-color="#450528" stop-opacity="0"/>
</radialGradient>
<linearGradient id="paint19_linear_30_3512" x1="3.61127" y1="23.6235" x2="3.61127" y2="25.6656" gradientUnits="userSpaceOnUse">
<stop offset="0.0873016" stop-color="#EB5757"/>
<stop offset="0.9709" stop-color="#3C53D7"/>
</linearGradient>
<radialGradient id="paint20_radial_30_3512" cx="0" cy="0" r="1" gradientUnits="userSpaceOnUse" gradientTransform="translate(3.23863 19.6858) scale(2.01651)">
<stop stop-color="#7F00FE"/>
<stop offset="1" stop-color="#450528" stop-opacity="0"/>
</radialGradient>
<linearGradient id="paint21_linear_30_3512" x1="3.21918" y1="19.484" x2="3.21918" y2="21.5262" gradientUnits="userSpaceOnUse">
<stop offset="0.0873016" stop-color="#EB5757"/>
<stop offset="0.9709" stop-color="#3C53D7"/>
</linearGradient>
<radialGradient id="paint22_radial_30_3512" cx="0" cy="0" r="1" gradientUnits="userSpaceOnUse" gradientTransform="translate(6.20152 10.2741) scale(2.01651)">
<stop stop-color="#7F00FE"/>
<stop offset="1" stop-color="#450528" stop-opacity="0"/>
</radialGradient>
<linearGradient id="paint23_linear_30_3512" x1="6.18207" y1="10.0722" x2="6.18207" y2="12.1144" gradientUnits="userSpaceOnUse">
<stop offset="0.0873016" stop-color="#EB5757"/>
<stop offset="0.9709" stop-color="#3C53D7"/>
</linearGradient>
<radialGradient id="paint24_radial_30_3512" cx="0" cy="0" r="1" gradientUnits="userSpaceOnUse" gradientTransform="translate(8.77232 7.00612) scale(2.01651)">
<stop stop-color="#7F00FE"/>
<stop offset="1" stop-color="#450528" stop-opacity="0"/>
</radialGradient>
<linearGradient id="paint25_linear_30_3512" x1="8.70942" y1="6.80427" x2="8.70942" y2="8.84643" gradientUnits="userSpaceOnUse">
<stop offset="0.0873016" stop-color="#EB5757"/>
<stop offset="0.9709" stop-color="#3C53D7"/>
</linearGradient>
<radialGradient id="paint26_radial_30_3512" cx="0" cy="0" r="1" gradientUnits="userSpaceOnUse" gradientTransform="translate(34.1319 5.78606) scale(2.01651)">
<stop stop-color="#7F00FE"/>
<stop offset="1" stop-color="#450528" stop-opacity="0"/>
</radialGradient>
<linearGradient id="paint27_linear_30_3512" x1="34.1125" y1="5.58424" x2="34.1125" y2="7.6264" gradientUnits="userSpaceOnUse">
<stop offset="0.0873016" stop-color="#EB5757"/>
<stop offset="0.9709" stop-color="#3C53D7"/>
</linearGradient>
</defs>
</svg>
