<svg width="1440" height="346" viewBox="0 0 1440 346" fill="none" xmlns="http://www.w3.org/2000/svg">
<g opacity="0.6">
<path opacity="0.6" d="M80.8421 3.79175L-9.60258 18.7348L-83.007 66.5787L-119.906 166.723L-75.5354 281.811L19.3659 330.572L104.174 317.858L182.756 267.785L220.573 165.871L176.596 52.5532L80.8421 3.79175Z" stroke="#0071BC" stroke-width="0.8601" stroke-miterlimit="10"/>
<path opacity="0.6" d="M19.3659 330.572L-12.683 298.064L-16.2221 193.529L9.27282 88.5343L-9.60259 18.7346L-83.859 113.177L-119.906 166.723L-85.6285 221.645L-12.683 298.064L104.174 317.857L172.204 226.495L176.595 117.962V52.5531" stroke="#0071BC" stroke-width="0.8601" stroke-miterlimit="10"/>
<path opacity="0.6" d="M80.842 3.79175L100.176 41.0838L98.0134 149.159L74.2881 252.842L104.174 317.858" stroke="#0071BC" stroke-width="0.8601" stroke-miterlimit="10"/>
<path opacity="0.6" d="M-9.93042 18.7346L100.504 41.2802L176.595 52.5531" stroke="#0071BC" stroke-width="0.8601" stroke-miterlimit="10"/>
<path opacity="0.6" d="M-83.728 113.571L8.81392 88.4035L100.504 41.2805L176.333 117.7L220.245 165.74L172.204 226.495" stroke="#0071BC" stroke-width="0.8601" stroke-miterlimit="10"/>
<path opacity="0.6" d="M-84.0557 113.571L-16.6809 193.529L73.8293 252.842" stroke="#0071BC" stroke-width="0.8601" stroke-miterlimit="10"/>
<path opacity="0.6" d="M182.756 268.178L172.204 226.036L97.5546 148.7L9.27271 88.1411" stroke="#0071BC" stroke-width="0.8601" stroke-miterlimit="10"/>
<path opacity="0.6" d="M176.595 118.42L98.0134 149.158L-16.6809 193.529L-86.0874 222.104" stroke="#0071BC" stroke-width="0.8601" stroke-miterlimit="10"/>
<path opacity="0.6" d="M-75.5354 281.811L-13.1417 297.606L73.3706 252.842L172.204 226.495" stroke="#0071BC" stroke-width="0.8601" stroke-miterlimit="10"/>
<g opacity="0.6">
<path opacity="0.6" d="M179.873 52.8153C179.873 54.716 178.365 56.2234 176.464 56.2234C174.564 56.2234 173.056 54.716 173.056 52.8153C173.056 50.9147 174.564 49.4073 176.464 49.4073C178.365 49.3417 179.873 50.9147 179.873 52.8153Z" fill="#0071BC"/>
<path opacity="0.6" d="M180.069 117.962C180.069 119.862 178.562 121.37 176.661 121.37C174.76 121.37 173.253 119.862 173.253 117.962C173.253 116.061 174.76 114.554 176.661 114.554C178.496 114.554 180.069 116.061 180.069 117.962Z" fill="#0071BC"/>
<path opacity="0.6" d="M101.422 149.159C101.422 151.059 99.9142 152.567 98.0135 152.567C96.1129 152.567 94.6055 151.059 94.6055 149.159C94.6055 147.258 96.1129 145.75 98.0135 145.75C99.9142 145.75 101.422 147.258 101.422 149.159Z" fill="#0071BC"/>
<path opacity="0.6" d="M175.678 226.036C175.678 227.937 174.171 229.445 172.27 229.445C170.369 229.445 168.862 227.937 168.862 226.036C168.862 224.136 170.369 222.628 172.27 222.628C174.105 222.628 175.678 224.136 175.678 226.036Z" fill="#0071BC"/>
<path opacity="0.6" d="M186.23 267.785C186.23 269.686 184.722 271.193 182.822 271.193C180.921 271.193 179.414 269.686 179.414 267.785C179.414 265.885 180.921 264.377 182.822 264.377C184.657 264.312 186.23 265.885 186.23 267.785Z" fill="#0071BC"/>
<path opacity="0.6" d="M107.582 317.595C107.582 319.496 106.075 321.003 104.174 321.003C102.274 321.003 100.766 319.43 100.766 317.595C100.766 315.694 102.274 314.187 104.174 314.187C106.009 314.187 107.582 315.694 107.582 317.595Z" fill="#0071BC"/>
<path opacity="0.6" d="M77.696 252.383C77.696 254.284 76.1886 255.791 74.288 255.791C72.3873 255.791 70.8799 254.284 70.8799 252.383C70.8799 250.483 72.3873 248.975 74.288 248.975C76.1886 248.975 77.696 250.483 77.696 252.383Z" fill="#0071BC"/>
<path opacity="0.6" d="M21.9221 330.376C21.9221 332.276 20.4147 333.784 18.514 333.784C16.6134 333.784 15.106 332.211 15.106 330.376C15.106 328.475 16.6134 326.968 18.514 326.968C20.4147 326.902 21.9221 328.475 21.9221 330.376Z" fill="#0071BC"/>
<path opacity="0.6" d="M12.6809 88.3378C12.6809 90.2384 11.1735 91.7458 9.2728 91.7458C7.37216 91.7458 5.86475 90.2384 5.86475 88.3378C5.86475 86.4371 7.37216 84.9297 9.2728 84.9297C11.1735 84.8642 12.6809 86.4371 12.6809 88.3378Z" fill="#0071BC"/>
<path opacity="0.6" d="M104.109 41.6078C104.109 43.5084 102.601 45.0159 100.701 45.0159C98.7999 45.0159 97.2925 43.5084 97.2925 41.6078C97.2925 39.7071 98.7999 38.1997 100.701 38.1997C102.601 38.1342 104.109 39.7071 104.109 41.6078Z" fill="#0071BC"/>
<path opacity="0.6" d="M84.3156 3.79163C84.3156 5.69228 82.8082 7.19969 80.9076 7.19969C79.0069 7.19969 77.4995 5.69228 77.4995 3.79163C77.4995 1.89098 79.0069 0.383569 80.9076 0.383569C82.7427 0.318029 84.3156 1.89098 84.3156 3.79163Z" fill="#0071BC"/>
</g>
</g>
<path opacity="0.2" d="M1407.48 243.805L1317.05 86.8018L1318.83 240.092L1407.48 243.805Z" stroke="#329DE3" stroke-miterlimit="10"/>
<path opacity="0.2" d="M1412.16 240.063L1453.04 164.846L1321.8 83.1393" stroke="#329DE3" stroke-miterlimit="10"/>
<path opacity="0.2" d="M1454.18 164.869L1368.37 168.442L1317.28 241.033" stroke="#329DE3" stroke-miterlimit="10"/>
<path opacity="0.2" d="M1454.22 175.466L1412.75 251.875L1321.72 245.724L1446.46 309.147L1454.22 175.466Z" stroke="#329DE3" stroke-miterlimit="10"/>
<path opacity="0.2" d="M1413.15 252.248L1443.62 306.765" stroke="#329DE3" stroke-miterlimit="10"/>
<path opacity="0.2" d="M1403.06 240.531C1402.61 239.74 1402.38 238.851 1402.4 237.979C1402.43 237.106 1402.71 236.288 1403.2 235.628C1403.7 234.968 1404.39 234.495 1405.19 234.269C1405.99 234.044 1406.86 234.075 1407.69 234.36C1408.52 234.645 1409.28 235.17 1409.87 235.869C1410.46 236.569 1410.85 237.411 1410.99 238.29C1411.14 239.169 1411.03 240.045 1410.68 240.808C1410.34 241.57 1409.77 242.186 1409.04 242.576C1408.56 242.836 1408.02 242.989 1407.46 243.027C1406.9 243.066 1406.32 242.987 1405.77 242.797C1405.21 242.607 1404.69 242.309 1404.22 241.921C1403.76 241.532 1403.36 241.06 1403.06 240.531V240.531Z" stroke="#329DE3" stroke-miterlimit="10"/>
<path opacity="0.2" d="M1311.61 243.008C1311.15 242.213 1310.91 241.318 1310.93 240.437C1310.95 239.555 1311.22 238.727 1311.72 238.057C1312.21 237.387 1312.9 236.905 1313.71 236.674C1314.51 236.442 1315.39 236.47 1316.23 236.755C1317.08 237.04 1317.84 237.569 1318.44 238.275C1319.03 238.98 1319.42 239.83 1319.57 240.717C1319.71 241.604 1319.6 242.487 1319.25 243.255C1318.9 244.023 1318.32 244.641 1317.59 245.03C1316.62 245.554 1315.44 245.635 1314.32 245.256C1313.2 244.876 1312.23 244.068 1311.61 243.008V243.008Z" stroke="#329DE3" stroke-miterlimit="10"/>
<path opacity="0.2" d="M1318.99 89.6089C1318.53 88.8153 1318.29 87.9216 1318.31 87.041C1318.33 86.1604 1318.6 85.3327 1319.09 84.6626C1319.59 83.9926 1320.28 83.5104 1321.08 83.2772C1321.88 83.044 1322.76 83.0704 1323.6 83.3528C1324.44 83.6353 1325.21 84.1612 1325.81 84.8639C1326.4 85.5666 1326.8 86.4144 1326.95 87.3C1327.09 88.1855 1326.99 89.0689 1326.64 89.8382C1326.29 90.6074 1325.71 91.2279 1324.99 91.621C1324.01 92.1457 1322.84 92.2285 1321.72 91.8515C1320.59 91.4745 1319.61 90.6682 1318.99 89.6089V89.6089Z" stroke="#329DE3" stroke-miterlimit="10"/>
<path opacity="0.2" d="M1409.33 251.212C1408.87 250.417 1408.64 249.524 1408.66 248.645C1408.68 247.766 1408.96 246.941 1409.45 246.274C1409.95 245.607 1410.64 245.128 1411.44 244.898C1412.25 244.668 1413.12 244.697 1413.96 244.981C1414.8 245.266 1415.57 245.793 1416.16 246.496C1416.75 247.199 1417.15 248.046 1417.3 248.931C1417.44 249.816 1417.33 250.698 1416.99 251.466C1416.64 252.234 1416.06 252.853 1415.33 253.246C1414.85 253.51 1414.31 253.667 1413.75 253.707C1413.19 253.748 1412.61 253.671 1412.05 253.482C1411.49 253.293 1410.96 252.995 1410.5 252.605C1410.03 252.216 1409.63 251.742 1409.33 251.212V251.212Z" stroke="#329DE3" stroke-miterlimit="10"/>
<path opacity="0.2" d="M1365.29 172.429C1364.83 171.634 1364.6 170.741 1364.62 169.862C1364.64 168.983 1364.92 168.158 1365.41 167.491C1365.91 166.824 1366.6 166.345 1367.4 166.115C1368.21 165.885 1369.08 165.914 1369.92 166.198C1370.76 166.483 1371.53 167.01 1372.12 167.713C1372.71 168.416 1373.11 169.263 1373.26 170.148C1373.4 171.032 1373.29 171.915 1372.95 172.683C1372.6 173.451 1372.02 174.07 1371.29 174.463C1370.81 174.727 1370.27 174.883 1369.71 174.924C1369.15 174.965 1368.57 174.888 1368.01 174.699C1367.45 174.51 1366.92 174.212 1366.46 173.822C1365.99 173.433 1365.59 172.959 1365.29 172.429V172.429Z" stroke="#329DE3" stroke-miterlimit="10"/>
<path opacity="0.2" d="M1317.87 252.392C1317.41 251.596 1317.18 250.703 1317.21 249.825C1317.23 248.948 1317.51 248.125 1318.01 247.462C1318.51 246.798 1319.2 246.322 1320 246.096C1320.81 245.869 1321.68 245.9 1322.52 246.187C1323.36 246.473 1324.12 247.001 1324.71 247.704C1325.31 248.408 1325.7 249.255 1325.84 250.138C1325.99 251.022 1325.88 251.903 1325.53 252.67C1325.18 253.436 1324.61 254.055 1323.88 254.447C1323.4 254.709 1322.86 254.863 1322.29 254.901C1321.73 254.94 1321.15 254.861 1320.59 254.67C1320.03 254.479 1319.5 254.179 1319.03 253.788C1318.57 253.397 1318.17 252.923 1317.87 252.392Z" stroke="#329DE3" stroke-miterlimit="10"/>
<path opacity="0.2" d="M1440.42 308.537C1439.96 307.743 1439.72 306.848 1439.74 305.966C1439.76 305.085 1440.03 304.256 1440.53 303.586C1441.02 302.916 1441.71 302.435 1442.52 302.203C1443.32 301.972 1444.2 302 1445.04 302.285C1445.89 302.57 1446.65 303.099 1447.25 303.804C1447.84 304.51 1448.23 305.36 1448.38 306.246C1448.52 307.133 1448.41 308.017 1448.06 308.785C1447.71 309.553 1447.13 310.171 1446.4 310.56C1445.43 311.084 1444.25 311.165 1443.13 310.785C1442.01 310.406 1441.04 309.597 1440.42 308.537V308.537Z" stroke="#329DE3" stroke-miterlimit="10"/>
</svg>
